<svg xmlns="http://www.w3.org/2000/svg" xmlns:xlink="http://www.w3.org/1999/xlink" width="500" zoomAndPan="magnify" viewBox="0 0 375 374.999991" height="500" preserveAspectRatio="xMidYMid meet" version="1.0"><defs><g/><clipPath id="dfe7e61a38"><path d="M 0 49.21875 L 373 49.21875 L 373 325.96875 L 0 325.96875 Z M 0 49.21875 " clip-rule="nonzero"/></clipPath></defs><g clip-path="url(#dfe7e61a38)"><path fill="#eeeeee" d="M 322.398438 103.183594 C 305.363281 107.292969 287.65625 109.382812 270.398438 112.597656 C 253.0625 115.808594 235.878906 119.546875 218.695312 123.65625 C 216.601562 124.179688 215.707031 121.039062 217.796875 120.515625 C 235.207031 116.035156 252.613281 111.925781 270.246094 108.261719 C 287.132812 104.828125 304.617188 101.015625 321.875 99.523438 C 323.96875 99.296875 324.417969 102.660156 322.398438 103.183594 Z M 119.917969 222.652344 C 97.054688 219.066406 74.191406 215.257812 51.179688 212.566406 C 49.984375 212.417969 49.6875 214.511719 50.882812 214.734375 C 73.746094 219.515625 96.90625 223.101562 119.992188 226.914062 C 143.082031 230.722656 166.167969 234.757812 189.332031 238.121094 C 191.945312 238.492188 193.140625 234.535156 190.375 234.011719 C 166.992188 229.828125 143.378906 226.316406 119.917969 222.652344 Z M 71.503906 285.714844 C 54.394531 280.410156 37.359375 275.03125 20.324219 269.574219 C 18.082031 268.828125 17.183594 272.414062 19.425781 273.085938 C 36.238281 278.46875 53.046875 283.773438 69.859375 289 C 77.929688 291.46875 86 293.933594 94.140625 296.324219 C 104.003906 299.164062 114.089844 303.125 124.179688 304.691406 C 125.375 304.917969 126.34375 303.199219 125 302.601562 C 116.109375 298.640625 106.097656 296.472656 96.757812 293.558594 C 88.390625 290.945312 79.945312 288.328125 71.503906 285.714844 Z M 20.398438 254.929688 C 18.378906 254.332031 17.558594 257.472656 19.574219 258.144531 C 53.796875 268.902344 88.089844 279.363281 122.386719 289.75 C 123.953125 290.195312 124.550781 287.804688 123.058594 287.285156 C 88.835938 276.300781 54.691406 265.464844 20.398438 254.929688 Z M 188.734375 217.574219 C 140.988281 209.429688 93.171875 201.734375 45.425781 193.664062 C 43.632812 193.363281 43.707031 195.605469 45.503906 195.980469 C 45.503906 195.980469 140.316406 213.089844 187.835938 221.832031 C 191.570312 222.503906 192.46875 218.246094 188.734375 217.574219 Z M 322.25 83.234375 C 286.164062 88.6875 250.300781 95.335938 214.511719 102.4375 C 213.015625 102.734375 213.6875 104.976562 215.183594 104.675781 C 251.121094 98.25 287.132812 92.273438 323.222656 86.519531 C 325.386719 86.222656 324.417969 82.933594 322.25 83.234375 Z M 365.585938 178.722656 C 365.363281 179.09375 365.0625 179.242188 364.6875 179.320312 C 364.316406 179.542969 363.941406 179.691406 363.492188 179.691406 C 359.460938 180.214844 355.425781 180.738281 351.464844 181.261719 C 357.742188 194.5625 359.90625 213.390625 350.269531 225.492188 C 350.121094 225.640625 349.96875 225.792969 349.820312 225.941406 C 349.523438 226.242188 349.074219 226.464844 348.550781 226.539062 C 344.140625 227.511719 339.734375 228.480469 335.402344 229.453125 C 342.871094 243.125 342.347656 259.339844 335.25 273.085938 C 335.027344 273.609375 334.578125 273.835938 334.203125 273.984375 C 333.90625 274.132812 333.605469 274.28125 333.234375 274.355469 C 265.019531 291.242188 197.101562 309.398438 128.585938 325.164062 C 127.839844 325.539062 126.941406 325.613281 125.972656 325.3125 C 84.804688 313.507812 44.382812 299.386719 3.511719 286.910156 C 0.972656 286.164062 1.269531 282.800781 3.136719 281.976562 C 13.148438 268.378906 12.703125 249.925781 1.570312 237 C 0 235.132812 0.972656 232.816406 2.539062 231.84375 C 2.765625 231.621094 3.0625 231.46875 3.363281 231.394531 C 13.449219 228.929688 23.3125 225.492188 33.398438 223.175781 C 36.535156 222.503906 37.882812 227.0625 34.742188 227.957031 C 26.898438 230.273438 18.902344 231.917969 10.910156 233.636719 C 29.664062 239.167969 48.417969 244.621094 67.09375 250.296875 C 77.480469 253.4375 87.792969 256.5 98.175781 259.636719 C 103.257812 261.207031 108.414062 262.777344 113.492188 264.34375 C 117.082031 265.464844 120.890625 266.214844 124.328125 267.78125 C 142.410156 264.121094 160.488281 260.386719 178.644531 257.097656 C 160.191406 253.136719 141.660156 249.253906 123.207031 245.441406 C 109.308594 242.527344 95.414062 239.539062 81.515625 236.328125 C 67.765625 233.113281 54.320312 228.707031 40.644531 225.71875 C 40.570312 225.71875 40.496094 225.640625 40.421875 225.640625 C 39.449219 225.492188 38.554688 224.746094 38.105469 223.476562 C 36.535156 218.46875 36.6875 212.792969 36.3125 207.5625 L 35.042969 190.152344 C 34.816406 187.539062 39.300781 186.863281 39.675781 189.480469 C 40.570312 195.234375 41.46875 200.984375 42.363281 206.664062 C 43.1875 211.820312 44.679688 217.347656 44.304688 222.578125 C 44.304688 222.730469 44.230469 222.878906 44.230469 223.027344 C 57.457031 225.792969 71.128906 227.285156 84.429688 229.75 C 98.027344 232.292969 111.699219 234.832031 125.300781 237.371094 C 153.167969 242.679688 181.113281 247.386719 209.054688 252.09375 C 209.28125 252.167969 209.578125 252.167969 209.804688 252.242188 C 215.855469 240.136719 215.480469 226.015625 209.28125 213.988281 C 208.832031 213.464844 208.382812 212.941406 207.933594 212.492188 C 207.859375 212.417969 207.859375 212.417969 207.785156 212.34375 C 201.660156 211.96875 195.382812 210.625 189.332031 209.804688 C 184.996094 209.203125 180.589844 208.53125 176.253906 207.859375 C 176.179688 207.859375 176.105469 207.859375 175.957031 207.859375 C 120.292969 198.671875 64.703125 189.105469 8.964844 180.066406 C 5.753906 179.542969 7.097656 174.835938 10.234375 175.285156 C 10.832031 175.359375 11.429688 175.433594 12.027344 175.507812 C 11.28125 162.804688 10.832031 150.179688 10.386719 137.476562 C 9.265625 137.328125 8.21875 137.105469 7.097656 136.953125 C 6.648438 136.878906 6.277344 136.730469 6.050781 136.429688 C 4.484375 135.535156 4.183594 132.621094 6.5 131.949219 C 18.15625 128.511719 29.886719 124.925781 41.839844 122.757812 C 37.507812 116.855469 35.566406 108.5625 35.191406 101.761719 C 34.59375 92.574219 36.910156 83.605469 41.542969 75.761719 C 41.617188 75.089844 42.066406 74.492188 42.960938 74.269531 C 62.761719 69.5625 82.710938 63.957031 102.808594 60.519531 C 115.136719 57.605469 129.929688 54.839844 138 53.046875 C 146.519531 51.179688 154.066406 50.058594 162.804688 49.835938 C 181.636719 49.386719 200.761719 51.328125 219.515625 52.152344 C 259.488281 54.019531 296.699219 56.558594 339.585938 61.492188 C 341.304688 61.714844 341.824219 63.285156 341.527344 64.554688 C 341.675781 65.972656 340.855469 67.394531 339.136719 67.320312 C 338.089844 67.46875 337.042969 67.691406 336 67.84375 C 334.28125 75.984375 333.382812 84.203125 333.832031 92.5 C 334.203125 99.894531 335.921875 106.917969 337.566406 114.089844 C 338.761719 113.941406 339.957031 113.71875 341.152344 113.492188 C 344.21875 113.046875 345.710938 117.679688 342.5 118.277344 C 331.367188 120.292969 320.160156 122.386719 309.027344 124.550781 C 327.703125 125.523438 346.011719 127.539062 364.464844 131.277344 C 364.914062 131.351562 365.210938 131.5 365.511719 131.722656 C 366.558594 132.097656 367.15625 133.144531 367.230469 134.191406 C 375 148.238281 374.253906 165.121094 365.585938 178.722656 Z M 332.113281 68.515625 C 288.628906 75.613281 245.144531 82.710938 201.734375 90.40625 C 201.734375 90.480469 201.660156 90.628906 201.660156 90.707031 C 197.847656 99.371094 196.578125 108.859375 197.847656 118.277344 C 198.445312 122.460938 199.566406 126.496094 200.984375 130.453125 C 202.105469 133.441406 203.75 136.132812 205.09375 139.046875 C 248.058594 130.230469 290.871094 121.488281 334.203125 114.6875 C 328.601562 100.121094 329.050781 83.605469 332.113281 68.515625 Z M 56.1875 75.761719 C 103.183594 79.273438 150.179688 82.710938 197.175781 86.96875 C 197.324219 86.894531 197.472656 86.820312 197.699219 86.820312 C 237.972656 78.226562 278.691406 71.578125 319.410156 65.226562 C 320.457031 65.078125 321.429688 65.003906 322.472656 64.855469 C 289.300781 61.640625 256.125 59.175781 222.804688 57.53125 C 203.675781 56.558594 184.546875 55.214844 165.347656 54.320312 C 162.507812 54.167969 159.742188 54.167969 157.054688 54.320312 C 145.171875 56.785156 133.292969 59.324219 121.414062 61.714844 C 112.894531 63.882812 103.554688 66.199219 97.355469 67.46875 C 83.605469 70.53125 69.859375 72.996094 56.1875 75.761719 Z M 197.027344 92.421875 C 177.523438 90.707031 158.023438 88.988281 138.523438 87.195312 C 135.683594 103.109375 136.507812 118.351562 142.335938 133.441406 C 160.488281 135.3125 178.644531 137.027344 196.875 138.449219 C 193.589844 132.171875 192.394531 124.101562 192.09375 117.753906 C 191.722656 109.011719 193.441406 100.34375 197.027344 92.421875 Z M 132.996094 86.746094 C 119.546875 85.550781 106.097656 84.28125 92.648438 83.007812 C 88.6875 98.25 90.03125 114.242188 96.832031 128.511719 C 110.355469 130.082031 123.878906 131.648438 137.402344 133.070312 C 131.125 118.648438 129.035156 101.988281 132.996094 86.746094 Z M 47.667969 122.460938 C 61.863281 124.253906 76.0625 125.972656 90.332031 127.691406 C 83.980469 113.269531 82.636719 97.804688 86.671875 82.410156 C 72.472656 81.066406 58.277344 79.648438 44.082031 78.226562 C 43.785156 78.300781 43.410156 78.300781 43.1875 78.226562 C 39.824219 85.324219 38.402344 92.945312 39.226562 100.792969 C 40.121094 109.234375 44.15625 115.285156 47.667969 122.460938 Z M 177.226562 162.132812 C 122.984375 154.289062 68.589844 146.890625 14.496094 138.074219 C 15.019531 150.703125 15.617188 163.328125 15.839844 175.957031 C 69.261719 183.429688 122.535156 191.199219 175.808594 199.640625 C 175.882812 199.34375 175.957031 199.117188 176.105469 198.820312 C 181.484375 187.238281 182.082031 174.089844 177.226562 162.132812 Z M 180.960938 155.484375 C 235.878906 146.445312 291.09375 139.792969 346.382812 133.59375 C 329.722656 130.902344 312.984375 128.210938 296.101562 127.167969 C 296.023438 127.167969 296.023438 127.167969 295.949219 127.167969 C 265.617188 133.144531 235.355469 139.421875 205.171875 145.695312 C 205.019531 145.695312 204.871094 145.695312 204.722656 145.769531 C 204.347656 145.921875 203.824219 145.996094 203.300781 145.921875 C 150.925781 141.585938 98.925781 134.414062 46.921875 126.941406 C 46.621094 127.015625 46.324219 126.941406 45.949219 126.867188 C 45.800781 126.941406 45.726562 126.941406 45.578125 127.015625 C 36.386719 129.410156 27.195312 131.574219 18.007812 133.890625 C 71.875 140.464844 125.671875 147.265625 179.394531 154.886719 C 180.066406 154.960938 180.515625 155.183594 180.960938 155.484375 Z M 302.300781 181.785156 C 309.921875 180.738281 317.46875 179.765625 325.089844 178.796875 C 328.226562 166.617188 327.628906 153.988281 322.101562 142.78125 C 314.480469 143.679688 306.859375 144.574219 299.238281 145.472656 C 304.542969 156.605469 306.558594 170.054688 302.300781 181.785156 Z M 263.972656 187.164062 C 274.957031 185.59375 285.9375 184.027344 296.921875 182.53125 C 299.6875 170.203125 300.507812 158.398438 295.277344 146.445312 C 295.203125 146.292969 295.128906 146.070312 295.128906 145.921875 C 284.21875 147.191406 273.3125 148.535156 262.402344 149.878906 C 267.257812 161.535156 268.605469 175.285156 263.972656 187.164062 Z M 231.46875 192.09375 C 240.585938 190.675781 249.777344 189.253906 258.964844 187.910156 C 262.703125 175.058594 263.671875 162.882812 258.59375 150.328125 C 248.953125 151.449219 239.316406 152.644531 229.75 153.765625 C 235.578125 165.796875 236.476562 179.691406 231.46875 192.09375 Z M 227.0625 192.84375 C 230.199219 179.992188 231.097656 166.839844 225.492188 154.363281 C 225.492188 154.363281 225.492188 154.363281 225.492188 154.289062 C 211.074219 156.007812 196.578125 157.652344 182.082031 159.21875 C 187.984375 172.445312 188.285156 187.164062 182.382812 200.464844 C 197.25 197.773438 212.117188 195.234375 227.0625 192.84375 Z M 257.546875 194.410156 C 237 197.398438 216.453125 200.386719 195.832031 203.300781 C 200.238281 203.675781 204.722656 203.976562 208.90625 204.871094 C 225.121094 201.285156 241.332031 197.773438 257.546875 194.410156 Z M 123.207031 275.328125 C 122.90625 275.03125 122.683594 274.730469 122.535156 274.355469 C 118.796875 273.683594 115.285156 272.191406 111.699219 271.070312 C 106.621094 269.425781 101.464844 267.855469 96.382812 266.289062 C 86.074219 263.074219 75.761719 259.863281 65.375 256.648438 C 47.070312 250.972656 28.839844 245.144531 10.683594 239.167969 C 18.53125 252.988281 17.632812 269.726562 7.769531 282.652344 C 47.667969 293.558594 87.117188 305.8125 126.867188 317.246094 C 133.070312 303.421875 134.9375 286.910156 123.207031 275.328125 Z M 201.957031 282.203125 C 201.0625 274.433594 198.59375 267.257812 194.636719 260.683594 C 173.417969 265.839844 151.824219 269.425781 130.453125 273.609375 C 141.511719 286.164062 139.34375 304.242188 133.144531 318.964844 C 155.707031 312.910156 178.273438 306.933594 200.835938 301.03125 C 200.910156 298.714844 201.660156 296.398438 201.957031 293.933594 C 202.40625 290.046875 202.332031 286.085938 201.957031 282.203125 Z M 275.253906 244.246094 C 268.304688 246.113281 261.355469 247.984375 254.410156 249.925781 C 247.460938 251.867188 240.511719 253.808594 233.5625 255.753906 C 226.761719 257.695312 219.890625 259.636719 213.089844 261.730469 C 210.773438 262.402344 207.933594 262.925781 205.617188 262.402344 C 203.75 261.953125 202.480469 261.65625 200.089844 261.058594 C 203.601562 266.960938 206.367188 274.132812 207.410156 280.933594 C 208.160156 285.714844 208.90625 293.558594 207.261719 299.386719 C 231.769531 292.960938 256.277344 286.609375 280.78125 280.335938 C 282.800781 267.78125 281.457031 255.527344 275.253906 244.246094 Z M 333.757812 250.375 C 333.605469 244.320312 331.515625 235.65625 326.507812 231.546875 C 310.820312 235.207031 295.128906 239.015625 279.511719 243.125 C 285.640625 253.960938 288.328125 266.8125 286.011719 278.988281 C 300.730469 275.253906 315.453125 271.519531 330.246094 267.855469 C 332.785156 262.253906 333.90625 256.425781 333.757812 250.375 Z M 349.671875 203.601562 C 349.671875 196.503906 348.027344 189.554688 344.816406 183.203125 C 344.664062 182.980469 344.589844 182.679688 344.515625 182.457031 C 323.148438 187.164062 301.328125 190.453125 279.8125 194.785156 C 257.695312 199.269531 235.65625 203.976562 213.613281 208.832031 C 213.613281 208.980469 213.613281 209.054688 213.613281 209.203125 C 220.1875 219.664062 221.980469 232.144531 219.140625 243.796875 C 218.621094 247.757812 217.574219 251.570312 216.152344 255.378906 C 259.339844 242.601562 302.898438 231.46875 346.683594 220.933594 C 348.027344 215.183594 349.671875 209.652344 349.671875 203.601562 Z M 361.925781 138.148438 C 350.195312 139.421875 338.390625 140.765625 326.660156 142.183594 C 332.335938 154.066406 332.859375 165.71875 329.871094 178.125 C 341.003906 176.703125 352.210938 175.285156 363.34375 173.9375 C 363.34375 173.9375 363.417969 173.9375 363.417969 173.9375 C 368.050781 163.105469 368.722656 148.238281 361.925781 138.148438 Z M 361.925781 138.148438 " fill-opacity="1" fill-rule="nonzero"/></g><g fill="#ffffff" fill-opacity="1"><g transform="translate(200.715123, 183.849994)"><g><path d="M 2.109375 0.078125 C 1.804688 0.078125 1.566406 -0.00390625 1.390625 -0.171875 C 1.222656 -0.335938 1.140625 -0.5625 1.140625 -0.84375 C 1.140625 -1.113281 1.222656 -1.332031 1.390625 -1.5 C 1.566406 -1.675781 1.804688 -1.765625 2.109375 -1.765625 C 2.410156 -1.765625 2.644531 -1.679688 2.8125 -1.515625 C 2.988281 -1.347656 3.078125 -1.128906 3.078125 -0.859375 C 3.078125 -0.578125 2.988281 -0.347656 2.8125 -0.171875 C 2.632812 -0.00390625 2.398438 0.078125 2.109375 0.078125 Z M 2.109375 0.078125 "/></g></g></g></svg>